<?xml version="1.0" standalone="no"?>
<!DOCTYPE svg PUBLIC "-//W3C//DTD SVG 20010904//EN"
 "http://www.w3.org/TR/2001/REC-SVG-20010904/DTD/svg10.dtd">
<svg version="1.0" xmlns="http://www.w3.org/2000/svg"
 width="200.000000pt" height="200.000000pt" viewBox="0 0 200.000000 200.000000"
 preserveAspectRatio="xMidYMid meet"><g transform="translate(0.000000,200.000000) scale(0.100000,-0.100000)" fill="#000000" stroke="none"> 
 <path d="M172 1045 c-54 -107 -65 -135 -51 -135 9 0 22 13 29 30 12 30 13 30
95 30 82 0 83 0 95 -30 7 -16 19 -30 26 -30 8 0 14 2 14 5 0 9 -130 265 -135
265 -2 0 -35 -61 -73 -135z m128 -37 c0 -5 -25 -8 -55 -8 -33 0 -55 4 -55 11
0 6 12 33 27 60 l28 49 27 -53 c15 -28 27 -55 28 -59z"/>
<path d="M600 1009 c0 -84 3 -110 13 -107 8 3 13 30 15 76 3 64 5 72 22 72 11
0 20 7 20 15 0 8 -9 15 -20 15 -13 0 -20 7 -20 20 0 11 -7 20 -15 20 -12 0
-15 -19 -15 -111z"/>
<path d="M1093 1061 c-59 -36 -52 -117 12 -148 33 -16 37 -16 71 1 25 11 34
20 27 27 -7 7 -19 6 -36 -2 -53 -24 -105 29 -78 80 15 26 53 36 81 21 15 -8
25 -9 32 -2 7 7 0 16 -20 26 -40 20 -50 20 -89 -3z"/>
<path d="M1293 1061 c-35 -22 -49 -56 -39 -96 9 -34 63 -68 96 -60 14 4 37 7
53 6 l27 0 0 79 0 79 -27 0 c-16 -1 -39 2 -53 6 -16 4 -36 -1 -57 -14z m87
-31 c11 -11 20 -29 20 -40 0 -11 -9 -29 -20 -40 -11 -11 -29 -20 -40 -20 -11
0 -29 9 -40 20 -11 11 -20 29 -20 40 0 11 9 29 20 40 11 11 29 20 40 20 11 0
29 -9 40 -20z"/>
<path d="M440 989 c0 -64 3 -79 15 -79 11 0 15 13 15 54 0 45 4 58 21 70 12 8
28 12 35 9 8 -3 14 1 14 11 0 12 -11 15 -50 15 l-50 -2 0 -78z"/>
<path d="M731 1043 c6 -15 15 -33 21 -40 7 -9 7 -17 0 -26 -6 -7 -15 -25 -21
-40 -15 -38 13 -37 31 1 10 20 22 28 46 30 27 3 35 -2 50 -27 20 -37 47 -43
36 -8 -3 12 -13 30 -22 40 -14 15 -14 19 0 35 9 9 19 27 22 40 11 34 -16 28
-36 -9 -15 -25 -23 -30 -50 -27 -24 2 -36 10 -46 31 -18 37 -46 38 -31 0z"/>
<path d="M960 990 c0 -64 3 -80 15 -80 12 0 15 16 15 80 0 64 -3 80 -15 80
-12 0 -15 -16 -15 -80z"/>
<path d="M1490 989 c0 -64 3 -79 15 -79 12 0 15 13 15 60 0 50 3 61 21 70 16
9 26 8 45 -5 21 -13 24 -23 24 -70 0 -42 3 -55 15 -55 25 0 20 101 -6 134 -18
23 -27 26 -75 25 l-54 -2 0 -78z"/>
<path d="M1699 1046 c-15 -33 0 -52 52 -66 22 -6 39 -15 39 -20 0 -14 -37 -31
-54 -24 -9 3 -24 3 -33 0 -26 -10 3 -26 48 -26 79 0 91 81 14 96 -19 3 -38 11
-41 16 -10 16 18 29 50 22 21 -5 27 -3 24 7 -3 8 -22 15 -46 17 -37 3 -43 0
-53 -22z"/>
</g>
</svg>
