<?xml version="1.0" standalone="no"?>
<!DOCTYPE svg PUBLIC "-//W3C//DTD SVG 20010904//EN"
 "http://www.w3.org/TR/2001/REC-SVG-20010904/DTD/svg10.dtd">
<svg version="1.0" xmlns="http://www.w3.org/2000/svg"
 width="200.000000pt" height="200.000000pt" viewBox="0 0 200.000000 200.000000"
 preserveAspectRatio="xMidYMid meet">

<g transform="translate(0.000000,200.000000) scale(0.100000,-0.100000)"
fill="#000000" stroke="none">
<path d="M916 1361 c-26 -23 -69 -47 -100 -57 -57 -18 -82 -15 -343 41 -84 18
-183 8 -235 -22 -56 -33 -71 -64 -78 -159 -4 -73 -9 -89 -28 -104 -27 -22 -27
-25 -2 -52 10 -11 22 -42 25 -67 14 -109 26 -141 63 -169 32 -24 45 -27 134
-30 58 -2 138 3 198 12 175 28 285 17 357 -34 50 -36 63 -37 101 -5 16 13 42
29 58 36 46 17 203 23 264 10 84 -19 289 -26 333 -12 59 20 83 58 97 155 8 59
18 90 31 102 25 22 24 32 -6 60 -22 21 -25 31 -25 97 0 60 -4 80 -23 107 -48
73 -162 102 -290 75 -259 -56 -286 -59 -342 -41 -30 9 -72 33 -98 56 l-45 40
-46 -39z m68 -20 c29 -27 114 -67 157 -75 22 -4 75 2 135 14 230 47 261 52
306 47 61 -8 121 -39 136 -72 7 -14 12 -58 12 -97 0 -60 4 -76 21 -95 l22 -22
-22 -66 c-11 -36 -21 -79 -21 -96 0 -41 -23 -83 -55 -97 -37 -17 -188 -15
-303 4 -179 29 -299 14 -384 -49 l-28 -21 -27 21 c-86 63 -209 79 -381 49
-119 -21 -273 -21 -312 -1 -30 16 -44 47 -55 128 -3 26 -13 64 -21 83 -14 32
-13 37 6 61 16 20 20 40 20 93 0 94 14 126 64 153 34 18 56 22 126 21 47 0
110 -8 140 -16 30 -9 96 -24 146 -33 88 -17 94 -17 150 1 31 10 76 32 98 50
23 18 43 33 45 33 3 1 14 -8 25 -18z"/>
<path d="M322 1048 c-27 -125 -27 -128 -2 -128 13 0 20 7 20 20 0 15 7 20 24
20 16 0 27 -7 31 -20 8 -26 49 -28 42 -2 -3 9 -13 53 -22 97 -23 114 -24 115
-49 115 -21 0 -25 -9 -44 -102z m58 -31 c0 -10 -5 -17 -11 -15 -6 2 -10 7 -10
11 1 4 1 17 1 30 0 18 2 19 10 7 5 -8 10 -23 10 -33z"/>
<path d="M478 1144 c-5 -4 -8 -56 -8 -116 0 -101 1 -108 20 -108 17 0 20 7 20
45 0 25 4 45 9 45 4 0 14 -20 21 -45 9 -33 18 -45 31 -45 23 0 23 -3 4 50 -13
37 -13 44 0 63 18 26 19 67 3 90 -14 18 -88 34 -100 21z m67 -64 c0 -16 -6
-26 -17 -28 -14 -3 -18 3 -18 28 0 25 4 31 18 28 11 -2 17 -12 17 -28z"/>
<path d="M620 1131 c0 -14 6 -21 20 -21 19 0 20 -7 20 -95 0 -88 1 -95 20 -95
19 0 20 7 20 95 l0 95 26 0 c19 0 25 4 22 18 -3 13 -16 18 -66 20 -57 3 -62 2
-62 -17z"/>
<path d="M770 1146 c0 -2 11 -28 25 -58 l25 -55 -25 -57 c-24 -54 -24 -56 -5
-56 12 0 25 10 32 25 6 14 14 25 18 25 4 0 12 -11 18 -25 7 -15 20 -25 32 -25
21 0 21 0 -13 80 -14 32 -14 37 9 82 29 57 30 68 5 68 -11 0 -23 -12 -31 -30
-7 -16 -15 -30 -19 -30 -4 0 -12 14 -18 30 -8 20 -18 30 -32 30 -12 0 -21 -2
-21 -4z"/>
<path d="M947 1143 c-4 -3 -7 -55 -7 -115 0 -101 1 -108 20 -108 19 0 20 7 20
115 0 89 -3 115 -13 115 -8 0 -17 -3 -20 -7z"/>
<path d="M1042 1134 c-20 -14 -22 -24 -22 -99 0 -93 11 -115 59 -115 33 0 61
27 61 58 0 28 -36 30 -43 2 -3 -11 -12 -20 -21 -20 -13 0 -16 13 -16 75 0 62
3 75 16 75 9 0 18 -9 21 -20 3 -11 14 -20 24 -20 25 0 25 34 -1 60 -24 24 -48
25 -78 4z"/>
<path d="M1206 1138 c-3 -7 -12 -51 -21 -98 -9 -47 -17 -93 -19 -102 -6 -25
34 -24 41 1 8 31 42 34 53 5 5 -13 17 -24 26 -24 19 0 16 34 -14 155 -14 59
-21 71 -40 73 -12 2 -24 -3 -26 -10z m33 -132 c-14 -16 -20 0 -13 30 l8 29 6
-25 c4 -14 3 -29 -1 -34z"/>
<path d="M1340 1034 c0 -105 2 -115 18 -112 14 3 17 14 17 56 -1 28 1 52 3 52
2 0 14 -25 27 -55 18 -41 30 -55 45 -55 20 0 21 5 18 112 -3 98 -5 113 -20
116 -16 3 -18 -5 -19 -60 l-1 -63 -29 63 c-46 97 -59 85 -59 -54z"/>
<path d="M1520 1130 c-31 -31 -25 -63 20 -104 44 -39 52 -66 20 -66 -14 0 -20
7 -20 21 0 26 -33 22 -38 -4 -9 -45 68 -76 102 -41 29 28 20 67 -25 108 -39
37 -45 56 -20 64 7 2 15 -5 18 -17 8 -30 43 -28 43 2 0 51 -63 74 -100 37z"/>
</g>
</svg>
