<?xml version="1.0" standalone="no"?>
<!DOCTYPE svg PUBLIC "-//W3C//DTD SVG 20010904//EN"
 "http://www.w3.org/TR/2001/REC-SVG-20010904/DTD/svg10.dtd">
<svg version="1.0" xmlns="http://www.w3.org/2000/svg"
 width="200.000000pt" height="200.000000pt" viewBox="0 0 200.000000 200.000000"
 preserveAspectRatio="xMidYMid meet">

<g transform="translate(0.000000,200.000000) scale(0.100000,-0.100000)"
fill="#000000" stroke="none">
<path d="M264 1172 c3 -5 -10 -66 -28 -135 l-32 -127 27 0 c23 0 28 5 31 28 2
21 9 28 31 30 23 3 28 -1 33 -27 5 -25 12 -31 31 -31 16 0 23 5 21 13 -3 6
-18 67 -33 135 -28 121 -29 122 -57 122 -16 0 -27 -4 -24 -8z m45 -144 c1 -10
-6 -18 -14 -18 -16 0 -19 20 -8 60 l7 25 7 -25 c4 -14 7 -33 8 -42z"/>
<path d="M410 1045 c0 -133 0 -135 23 -135 20 0 22 4 19 50 -3 39 -1 50 11 50
10 0 19 -18 27 -50 10 -42 16 -50 35 -50 23 0 23 1 10 50 -11 41 -11 51 1 61
18 14 19 130 2 147 -7 7 -38 12 -70 12 l-58 0 0 -135z m88 52 c3 -34 1 -37
-22 -37 -23 0 -26 4 -26 33 0 38 7 49 30 45 9 -2 16 -16 18 -41z"/>
<path d="M577 1173 c-18 -17 -6 -39 21 -38 l27 0 0 -113 0 -112 25 0 25 0 0
112 0 113 28 0 c22 -1 27 4 27 22 0 22 -4 23 -73 23 -41 0 -77 -3 -80 -7z"/>
<path d="M750 1176 c0 -2 11 -29 25 -60 14 -31 25 -63 25 -70 0 -7 -11 -39
-25 -70 -14 -31 -25 -59 -25 -61 0 -3 11 -5 24 -5 19 0 27 8 37 37 11 34 13
35 25 18 8 -10 14 -27 14 -37 0 -13 8 -18 29 -18 l29 0 -28 67 -28 67 19 49
c11 28 24 58 30 68 8 17 6 19 -21 19 -16 0 -30 -4 -30 -9 0 -5 -5 -22 -11 -38
l-11 -28 -15 38 c-12 28 -21 37 -39 37 -13 0 -24 -2 -24 -4z"/>
<path d="M935 1045 l0 -135 25 0 25 0 0 135 0 135 -25 0 -25 0 0 -135z"/>
<path d="M1032 1168 c-17 -17 -17 -229 0 -246 16 -16 100 -16 116 0 7 7 12 25
12 40 0 23 -4 28 -25 28 -18 0 -25 -5 -25 -20 0 -13 -7 -20 -20 -20 -19 0 -20
7 -20 95 0 88 1 95 20 95 13 0 20 -7 20 -20 0 -15 7 -20 25 -20 21 0 25 5 25
28 0 39 -17 52 -70 52 -25 0 -51 -5 -58 -12z"/>
<path d="M1242 1158 c-1 -13 -14 -74 -30 -135 l-28 -113 29 0 c15 0 26 3 24 8
-11 18 13 52 37 52 19 0 26 -7 31 -30 5 -24 12 -30 32 -30 16 0 23 4 20 13 -3
7 -17 68 -33 135 -27 117 -29 122 -54 122 -19 0 -26 -5 -28 -22z m42 -110 c6
-31 4 -38 -9 -38 -16 0 -20 34 -9 65 8 20 10 18 18 -27z"/>
<path d="M1385 1045 l0 -135 25 0 c25 0 25 1 22 77 -2 43 0 74 5 70 4 -5 20
-39 34 -75 22 -57 31 -67 53 -70 l26 -3 0 135 0 136 -25 0 c-23 0 -24 -3 -27
-77 l-3 -78 -30 78 c-26 68 -33 77 -55 77 l-25 0 0 -135z"/>
<path d="M1592 1168 c-6 -6 -12 -35 -12 -63 0 -61 20 -85 69 -85 30 0 32 -2
29 -32 -4 -39 -36 -52 -45 -19 -3 14 -13 21 -29 21 -20 0 -24 -5 -24 -29 0
-41 20 -53 82 -49 l53 3 3 63 c4 75 -7 92 -55 92 -33 0 -34 2 -31 33 2 24 8
32 23 32 13 0 20 -6 19 -17 -1 -13 6 -18 26 -18 26 0 27 2 21 38 l-6 37 -55 3
c-34 2 -60 -2 -68 -10z"/>
</g>
</svg>
